<svg width="30" height="23" viewBox="0 0 30 23" fill="none" xmlns="http://www.w3.org/2000/svg">
<path d="M25.896 2.79153C25.896 2.79153 22.8 0.288356 19.08 0L18.75 0.68101C21.1788 1.20347 23.4143 2.41553 25.2 4.17809C22.446 2.74245 19.716 1.3927 15 1.3927C10.284 1.3927 7.53 2.74245 4.8 4.17809C6.59899 2.42426 8.83765 1.21387 11.268 0.68101L10.938 0C8.45399 0.299486 6.09083 1.26225 4.086 2.79153C4.086 2.79153 0.6 7.96353 0 18.1296C3.516 22.277 8.862 22.3077 8.862 22.3077L9.972 20.7862C7.69589 19.9861 5.66586 18.5874 4.086 16.7308C6.288 18.4364 9.63 20.2156 15 20.2156C20.37 20.2156 23.7 18.4425 25.914 16.7308C24.3341 18.5874 22.3041 19.9861 20.028 20.7862L21.138 22.3077C21.138 22.3077 26.484 22.3077 30 18.1296C29.4 7.96353 25.896 2.79153 25.896 2.79153ZM10.548 15.3381C9.86808 15.2923 9.23364 14.9728 8.78375 14.4495C8.33386 13.9263 8.10524 13.2419 8.148 12.5465C8.10688 11.8522 8.33625 11.1694 8.78597 10.6475C9.23569 10.1256 9.86919 9.8069 10.548 9.76115C11.2274 9.80532 11.8618 10.1235 12.3119 10.6458C12.7619 11.1681 12.9907 11.8518 12.948 12.5465C12.9908 13.2419 12.7621 13.9263 12.3123 14.4495C11.8624 14.9728 11.2279 15.2923 10.548 15.3381ZM19.416 15.3381C18.7367 15.2908 18.1032 14.9708 17.6536 14.4479C17.204 13.925 16.9748 13.2415 17.016 12.5465C16.9749 11.8522 17.2043 11.1694 17.654 10.6475C18.1037 10.1256 18.7372 9.8069 19.416 9.76115C20.0954 9.80532 20.7298 10.1235 21.1799 10.6458C21.6299 11.1681 21.8587 11.8518 21.816 12.5465C21.8588 13.2419 21.6301 13.9263 21.1803 14.4495C20.7304 14.9728 20.0959 15.2923 19.416 15.3381Z" fill="#BCBEC0"/>
</svg>
