<svg width="31" height="24" viewBox="0 0 31 24" fill="none" xmlns="http://www.w3.org/2000/svg">
<path d="M9.77136 23.9999C21.1867 23.9999 27.4268 14.7599 27.4268 6.76791C27.4268 6.50391 27.4268 6.24591 27.4268 5.98191C28.6377 5.12737 29.6801 4.06628 30.5037 2.84991C29.3717 3.34014 28.1706 3.66173 26.9406 3.80391C28.2374 3.0491 29.2068 1.85852 29.6667 0.455907C28.4513 1.16482 27.1186 1.66223 25.7283 1.92591C24.8756 1.0419 23.77 0.428171 22.5551 0.164338C21.3402 -0.0994954 20.0721 -0.00125011 18.9151 0.446326C17.7582 0.893903 16.766 1.67015 16.0671 2.67435C15.3683 3.67856 14.9951 4.86436 14.996 6.07791C14.9941 6.53845 15.0478 6.9976 15.156 7.44591C12.689 7.32401 10.2759 6.69806 8.07298 5.60862C5.87006 4.51919 3.9265 2.99059 2.36829 1.12191C1.58231 2.45712 1.34529 4.03339 1.70509 5.53239C2.06489 7.03138 2.9947 8.34141 4.30675 9.19791C3.31833 9.17217 2.35112 8.91274 1.48829 8.44191V8.51991C1.49199 9.91561 1.98922 11.2674 2.89612 12.3472C3.80302 13.4271 5.06412 14.169 6.46675 14.4479C5.55435 14.6934 4.59618 14.7303 3.66675 14.5559C4.06633 15.756 4.83909 16.8052 5.87784 17.5578C6.91659 18.3104 8.16982 18.7291 9.46367 18.7559C7.26154 20.4421 4.54067 21.3553 1.74059 21.3479C1.24705 21.3472 0.753951 21.3191 0.263672 21.2639C3.09696 23.0487 6.39817 23.9987 9.77136 23.9999Z" fill="#BCBEC0"/>
</svg>
