<svg width="28" height="30" viewBox="0 0 28 30" fill="none" xmlns="http://www.w3.org/2000/svg">
<path d="M27.2804 5.95685C27.2769 5.64366 27.1963 5.33616 27.0459 5.06145C26.1887 3.54791 25.2896 2.05708 24.4297 0.544445C24.2079 0.152651 23.9433 -0.000976562 23.4897 -0.000976562C19.2036 0.013568 14.9166 0.00812267 10.6296 0.00812267C8.46338 0.00812267 6.29715 -0.00278576 4.13183 0.00812267C2.06286 0.0217582 -0.027007 1.45622 0.000264035 4.15514C0.075714 11.4856 0.0302604 18.8179 0.0211701 26.1538C0.0128629 26.5784 0.0908354 27.0003 0.250371 27.3939C0.409907 27.7875 0.647681 28.1447 0.949292 28.4437C2.04014 29.5618 3.40369 29.9999 4.9345 29.9999C12.0856 29.9999 19.2367 29.9999 26.3877 29.9999C27.115 29.9999 27.2968 29.8181 27.2968 29.0909C27.2968 25.2439 27.2968 21.3956 27.2968 17.5461C27.2895 13.6837 27.295 9.81752 27.2804 5.95685ZM16.6929 14.3136C16.8259 14.5511 16.9924 14.7682 17.1874 14.9581C17.4874 15.2581 17.4674 15.5481 17.2056 15.8344C16.9438 16.1208 16.682 16.3799 16.4029 16.6362C16.1238 16.8925 15.8257 16.9207 15.5275 16.6189C15.348 16.4347 15.1443 16.2757 14.9221 16.1462C14.4903 15.9008 14.104 16.0608 13.9721 16.5398C13.9071 16.8199 13.8721 17.106 13.8676 17.3934C13.854 17.7316 13.6758 17.9007 13.3622 17.9152C12.9395 17.9352 12.515 17.9352 12.0895 17.9207C11.735 17.9079 11.5359 17.7298 11.5441 17.3453C11.5437 17.1183 11.5199 16.8919 11.4732 16.6698C11.3487 16.0381 10.9132 15.8572 10.3705 16.2153C10.1932 16.3317 10.0297 16.4681 9.8833 16.6217C9.58968 16.9298 9.29424 16.8998 9.00881 16.6389C8.72337 16.378 8.44157 16.0935 8.17977 15.7999C7.94615 15.539 7.93523 15.2708 8.19612 14.9954C8.3984 14.7915 8.57431 14.5631 8.71973 14.3154C8.93699 13.9182 8.78518 13.5509 8.34794 13.4237C8.05574 13.3472 7.75544 13.306 7.45345 13.301C7.11256 13.2864 6.94348 13.1073 6.92802 12.7983C6.90712 12.3601 6.90621 11.9201 6.92802 11.482C6.94348 11.1738 7.10983 10.9847 7.45345 10.9811C7.68028 10.9775 7.90645 10.9556 8.12977 10.9156C8.81609 10.7957 9.00335 10.3466 8.60701 9.76844C8.4857 9.59455 8.34845 9.43233 8.19703 9.28392C7.94796 9.03575 7.9316 8.76759 8.1534 8.51852C8.44415 8.1899 8.75438 7.87904 9.08243 7.58765C9.32969 7.36858 9.59877 7.37949 9.84876 7.62857C10.0076 7.79136 10.182 7.93812 10.3696 8.06672C10.9069 8.42215 11.3496 8.23852 11.4723 7.6122C11.5182 7.37458 11.5429 7.13334 11.5459 6.89134C11.5514 6.55045 11.735 6.38046 12.045 6.365C12.4831 6.34319 12.9231 6.3441 13.3613 6.365C13.6722 6.37864 13.854 6.54681 13.8685 6.88588C13.8727 7.17297 13.9075 7.45881 13.9721 7.73856C14.1012 8.22035 14.4921 8.38488 14.9203 8.13671C15.1657 7.9949 15.3548 7.7522 15.6029 7.61948C15.7766 7.52857 16.0902 7.43767 16.2011 7.52857C16.6102 7.85492 16.9656 8.25035 17.331 8.62942C17.3865 8.68759 17.3892 8.79667 17.4365 8.94394C17.3547 9.0612 17.2647 9.21665 17.1556 9.34665C16.8738 9.6939 16.4447 10.0075 16.6683 10.5229C16.8811 11.0138 17.3956 10.9365 17.8228 10.9775C18.3573 11.0284 18.48 11.1229 18.5019 11.6629C18.5164 12.0265 18.5082 12.3901 18.49 12.7537C18.4719 13.1173 18.301 13.2991 17.9155 13.3064C17.6285 13.3072 17.3429 13.347 17.0665 13.4246C16.6302 13.5473 16.4784 13.9136 16.6929 14.3118V14.3136ZM25.4987 28.7364C18.6991 28.7364 11.8992 28.7364 5.09904 28.7364C4.12365 28.7364 3.20007 28.5864 2.38466 28.0155C0.930206 27.001 0.930206 25.3484 2.38466 24.3348C3.14371 23.8049 4.00093 23.6149 4.91724 23.6167C7.62889 23.624 10.3396 23.6167 13.0504 23.6167C16.4732 23.6167 19.8972 23.6167 23.3225 23.6167C23.5187 23.6186 23.7147 23.6021 23.9079 23.5676C24.2161 23.5085 24.3742 23.3067 24.3824 22.9913C24.3824 22.8549 24.3824 22.7186 24.3824 22.5822V3.18338L24.4733 3.14157C24.9724 3.99788 25.4733 4.85146 25.9651 5.71413C26.0269 5.8214 26.0205 5.97685 26.0205 6.10957C26.0205 13.5158 26.0205 20.9214 26.0205 28.3264V28.7327L25.4987 28.7364Z" fill="#BCBEC0"/>
</svg>
