<svg width="380" height="246" viewBox="0 0 380 246" fill="none" xmlns="http://www.w3.org/2000/svg">
<g clip-path="url(#clip0_6550_7319)">
<path d="M190.617 158.776L147.922 201.471L190.617 244.166L233.312 201.471L190.617 158.776Z" stroke="#B54300" stroke-width="2" stroke-miterlimit="10"/>
<path d="M244.449 1.4248H135.559V110.315H244.449V1.4248Z" stroke="#0072B5" stroke-width="2" stroke-miterlimit="10"/>
<path d="M191.029 150.665V111.235H190.029V150.575L186.309 149.095L189.289 155.845L190.649 159.395L191.989 155.845L194.749 149.095L191.029 150.665Z" fill="white"/>
<path d="M298.159 56.3348V55.3348L253.229 55.4548L254.739 51.6748L247.989 54.6648L244.439 56.0148L247.989 57.3648L254.739 60.1148L253.199 56.4548L298.159 56.3348Z" fill="white"/>
<path d="M132.009 54.5146L125.259 51.7646L126.829 55.4846H82.459V56.4846H126.739L125.259 60.2046L132.009 57.2146L135.559 55.8646L132.009 54.5146Z" fill="white"/>
<path d="M41.6795 96.0246C63.8593 96.0246 81.8395 78.0443 81.8395 55.8646C81.8395 33.6848 63.8593 15.7046 41.6795 15.7046C19.4998 15.7046 1.51953 33.6848 1.51953 55.8646C1.51953 78.0443 19.4998 96.0246 41.6795 96.0246Z" stroke="#9E00B5" stroke-width="2" stroke-miterlimit="10"/>
<path d="M338.32 96.0246C360.5 96.0246 378.48 78.0443 378.48 55.8646C378.48 33.6848 360.5 15.7046 338.32 15.7046C316.14 15.7046 298.16 33.6848 298.16 55.8646C298.16 78.0443 316.14 96.0246 338.32 96.0246Z" stroke="#17B500" stroke-width="2" stroke-miterlimit="10"/>
<path d="M26.4842 51.8707V52.7987H23.3802V63.0547H22.2602V52.7987H19.1402V51.8707H26.4842ZM32.0767 63.1827C31.2553 63.1827 30.514 63.0014 29.8527 62.6387C29.202 62.2654 28.6847 61.7427 28.3007 61.0707C27.9273 60.388 27.7407 59.5934 27.7407 58.6867C27.7407 57.78 27.9327 56.9907 28.3167 56.3187C28.7007 55.636 29.2233 55.1134 29.8847 54.7507C30.546 54.3774 31.2873 54.1907 32.1087 54.1907C32.93 54.1907 33.6713 54.3774 34.3327 54.7507C35.0047 55.1134 35.5273 55.636 35.9007 56.3187C36.2847 56.9907 36.4767 57.78 36.4767 58.6867C36.4767 59.5827 36.2847 60.372 35.9007 61.0547C35.5167 61.7374 34.9887 62.2654 34.3167 62.6387C33.6447 63.0014 32.898 63.1827 32.0767 63.1827ZM32.0767 62.2067C32.6527 62.2067 33.186 62.0787 33.6767 61.8227C34.1673 61.556 34.562 61.1614 34.8607 60.6387C35.17 60.1054 35.3247 59.4547 35.3247 58.6867C35.3247 57.9187 35.1753 57.2734 34.8767 56.7507C34.578 56.2174 34.1833 55.8227 33.6927 55.5667C33.202 55.3 32.6687 55.1667 32.0927 55.1667C31.5167 55.1667 30.9833 55.3 30.4927 55.5667C30.002 55.8227 29.6073 56.2174 29.3087 56.7507C29.0207 57.2734 28.8767 57.9187 28.8767 58.6867C28.8767 59.4547 29.0207 60.1054 29.3087 60.6387C29.6073 61.1614 29.9967 61.556 30.4767 61.8227C30.9673 62.0787 31.5007 62.2067 32.0767 62.2067ZM43.2383 63.0547L39.6383 59.1347V63.0547H38.5183V51.2147H39.6383V58.2227L43.1583 54.3187H44.7263L40.5823 58.6707L44.7583 63.0547H43.2383ZM54.1098 58.2387C54.1098 58.6227 54.0991 58.916 54.0778 59.1187H46.8298C46.8618 59.78 47.0218 60.3454 47.3098 60.8147C47.5978 61.284 47.9764 61.6414 48.4458 61.8867C48.9151 62.1214 49.4271 62.2387 49.9818 62.2387C50.7071 62.2387 51.3151 62.0627 51.8058 61.7107C52.3071 61.3587 52.6378 60.884 52.7978 60.2867H53.9818C53.7684 61.14 53.3098 61.8387 52.6058 62.3827C51.9124 62.916 51.0378 63.1827 49.9818 63.1827C49.1604 63.1827 48.4244 63.0014 47.7738 62.6387C47.1231 62.2654 46.6111 61.7427 46.2378 61.0707C45.8751 60.388 45.6938 59.5934 45.6938 58.6867C45.6938 57.78 45.8751 56.9854 46.2378 56.3027C46.6004 55.62 47.1071 55.0974 47.7578 54.7347C48.4084 54.372 49.1498 54.1907 49.9818 54.1907C50.8138 54.1907 51.5391 54.372 52.1578 54.7347C52.7871 55.0974 53.2671 55.588 53.5978 56.2067C53.9391 56.8147 54.1098 57.492 54.1098 58.2387ZM52.9738 58.2067C52.9844 57.556 52.8511 57.0014 52.5738 56.5427C52.3071 56.084 51.9391 55.7374 51.4698 55.5027C51.0004 55.268 50.4884 55.1507 49.9338 55.1507C49.1018 55.1507 48.3924 55.4174 47.8058 55.9507C47.2191 56.484 46.8938 57.236 46.8298 58.2067H52.9738ZM60.2549 54.1587C61.3002 54.1587 62.1536 54.484 62.8149 55.1347C63.4762 55.7747 63.8069 56.708 63.8069 57.9347V63.0547H62.7029V58.0627C62.7029 57.1134 62.4629 56.388 61.9829 55.8867C61.5136 55.3854 60.8682 55.1347 60.0469 55.1347C59.2042 55.1347 58.5322 55.4014 58.0309 55.9347C57.5296 56.468 57.2789 57.252 57.2789 58.2867V63.0547H56.1589V54.3187H57.2789V55.8067C57.5562 55.2734 57.9562 54.868 58.4789 54.5907C59.0016 54.3027 59.5936 54.1587 60.2549 54.1587Z" fill="white"/>
<path d="M178.33 205.197H172.606L171.508 208.185H170.176L174.766 195.765H176.188L180.76 208.185H179.428L178.33 205.197ZM177.952 204.153L175.468 197.349L172.984 204.153H177.952ZM195.076 195.765V208.185H193.816V198.267L189.388 208.185H188.47L184.042 198.303V208.185H182.782V195.765H184.114L188.92 206.529L193.726 195.765H195.076ZM210.228 195.765V208.185H208.968V198.267L204.54 208.185H203.622L199.194 198.303V208.185H197.934V195.765H199.266L204.072 206.529L208.878 195.765H210.228Z" fill="white"/>
<path d="M296.241 126.005C295.594 126.005 295.007 125.855 294.481 125.555C293.954 125.248 293.537 124.825 293.231 124.285C292.931 123.738 292.781 123.121 292.781 122.435C292.781 121.748 292.931 121.135 293.231 120.595C293.537 120.048 293.954 119.625 294.481 119.325C295.007 119.018 295.594 118.865 296.241 118.865C296.894 118.865 297.484 119.018 298.011 119.325C298.537 119.625 298.951 120.048 299.251 120.595C299.551 121.135 299.701 121.748 299.701 122.435C299.701 123.121 299.551 123.738 299.251 124.285C298.951 124.825 298.537 125.248 298.011 125.555C297.484 125.855 296.894 126.005 296.241 126.005ZM296.241 125.395C296.761 125.395 297.227 125.275 297.641 125.035C298.054 124.795 298.381 124.451 298.621 124.005C298.861 123.551 298.981 123.028 298.981 122.435C298.981 121.841 298.861 121.321 298.621 120.875C298.381 120.428 298.054 120.085 297.641 119.845C297.227 119.605 296.761 119.485 296.241 119.485C295.721 119.485 295.254 119.605 294.841 119.845C294.427 120.085 294.101 120.428 293.861 120.875C293.621 121.321 293.501 121.841 293.501 122.435C293.501 123.028 293.621 123.551 293.861 124.005C294.101 124.451 294.427 124.795 294.841 125.035C295.254 125.275 295.721 125.395 296.241 125.395ZM303.132 121.065H301.862V125.935H301.162V121.065H300.402V120.475H301.162V120.095C301.162 119.501 301.312 119.065 301.612 118.785C301.918 118.505 302.412 118.365 303.092 118.365V118.965C302.638 118.965 302.318 119.051 302.132 119.225C301.952 119.398 301.862 119.688 301.862 120.095V120.475H303.132V121.065ZM306.384 121.065H305.114V125.935H304.414V121.065H303.654V120.475H304.414V120.095C304.414 119.501 304.564 119.065 304.864 118.785C305.17 118.505 305.664 118.365 306.344 118.365V118.965C305.89 118.965 305.57 119.051 305.384 119.225C305.204 119.398 305.114 119.688 305.114 120.095V120.475H306.384V121.065ZM312.426 122.925C312.426 123.165 312.419 123.348 312.406 123.475H307.876C307.896 123.888 307.996 124.241 308.176 124.535C308.356 124.828 308.592 125.051 308.886 125.205C309.179 125.351 309.499 125.425 309.846 125.425C310.299 125.425 310.679 125.315 310.986 125.095C311.299 124.875 311.506 124.578 311.606 124.205H312.346C312.212 124.738 311.926 125.175 311.486 125.515C311.052 125.848 310.506 126.015 309.846 126.015C309.332 126.015 308.872 125.901 308.466 125.675C308.059 125.441 307.739 125.115 307.506 124.695C307.279 124.268 307.166 123.771 307.166 123.205C307.166 122.638 307.279 122.141 307.506 121.715C307.732 121.288 308.049 120.961 308.456 120.735C308.862 120.508 309.326 120.395 309.846 120.395C310.366 120.395 310.819 120.508 311.206 120.735C311.599 120.961 311.899 121.268 312.106 121.655C312.319 122.035 312.426 122.458 312.426 122.925ZM311.716 122.905C311.722 122.498 311.639 122.151 311.466 121.865C311.299 121.578 311.069 121.361 310.776 121.215C310.482 121.068 310.162 120.995 309.816 120.995C309.296 120.995 308.852 121.161 308.486 121.495C308.119 121.828 307.916 122.298 307.876 122.905H311.716ZM314.406 121.445C314.56 121.105 314.793 120.841 315.106 120.655C315.426 120.468 315.816 120.375 316.276 120.375V121.105H316.086C315.58 121.105 315.173 121.241 314.866 121.515C314.56 121.788 314.406 122.245 314.406 122.885V125.935H313.706V120.475H314.406V121.445ZM317.679 119.445C317.539 119.445 317.419 119.395 317.319 119.295C317.219 119.195 317.169 119.071 317.169 118.925C317.169 118.778 317.219 118.658 317.319 118.565C317.419 118.465 317.539 118.415 317.679 118.415C317.819 118.415 317.939 118.465 318.039 118.565C318.139 118.658 318.189 118.778 318.189 118.925C318.189 119.071 318.139 119.195 318.039 119.295C317.939 119.395 317.819 119.445 317.679 119.445ZM318.029 120.475V125.935H317.329V120.475H318.029ZM322.174 120.375C322.828 120.375 323.361 120.578 323.774 120.985C324.188 121.385 324.394 121.968 324.394 122.735V125.935H323.704V122.815C323.704 122.221 323.554 121.768 323.254 121.455C322.961 121.141 322.558 120.985 322.044 120.985C321.518 120.985 321.098 121.151 320.784 121.485C320.471 121.818 320.314 122.308 320.314 122.955V125.935H319.614V120.475H320.314V121.405C320.488 121.071 320.738 120.818 321.064 120.645C321.391 120.465 321.761 120.375 322.174 120.375ZM328.233 120.395C328.746 120.395 329.193 120.515 329.573 120.755C329.953 120.995 330.226 121.298 330.393 121.665V120.475H331.093V126.075C331.093 126.575 330.983 127.018 330.763 127.405C330.549 127.791 330.249 128.088 329.863 128.295C329.476 128.508 329.036 128.615 328.543 128.615C327.843 128.615 327.259 128.448 326.793 128.115C326.333 127.781 326.046 127.328 325.933 126.755H326.623C326.743 127.135 326.969 127.438 327.303 127.665C327.643 127.891 328.056 128.005 328.543 128.005C328.896 128.005 329.213 127.928 329.493 127.775C329.773 127.628 329.993 127.408 330.153 127.115C330.313 126.821 330.393 126.475 330.393 126.075V124.725C330.219 125.098 329.943 125.408 329.563 125.655C329.189 125.895 328.746 126.015 328.233 126.015C327.733 126.015 327.283 125.898 326.883 125.665C326.489 125.431 326.179 125.101 325.953 124.675C325.733 124.248 325.623 123.755 325.623 123.195C325.623 122.635 325.733 122.145 325.953 121.725C326.179 121.298 326.489 120.971 326.883 120.745C327.283 120.511 327.733 120.395 328.233 120.395ZM330.393 123.205C330.393 122.765 330.303 122.378 330.123 122.045C329.943 121.711 329.696 121.455 329.383 121.275C329.076 121.095 328.736 121.005 328.363 121.005C327.976 121.005 327.629 121.091 327.323 121.265C327.016 121.438 326.773 121.691 326.593 122.025C326.419 122.351 326.333 122.741 326.333 123.195C326.333 123.641 326.419 124.035 326.593 124.375C326.773 124.708 327.016 124.965 327.323 125.145C327.629 125.318 327.976 125.405 328.363 125.405C328.736 125.405 329.076 125.315 329.383 125.135C329.696 124.955 329.943 124.698 330.123 124.365C330.303 124.031 330.393 123.645 330.393 123.205ZM339.905 120.955C339.905 121.555 339.708 122.038 339.315 122.405C338.921 122.771 338.331 122.955 337.545 122.955H336.135V125.935H335.435V118.945H337.545C338.325 118.945 338.911 119.128 339.305 119.495C339.705 119.861 339.905 120.348 339.905 120.955ZM337.545 122.355C338.638 122.355 339.185 121.888 339.185 120.955C339.185 120.488 339.055 120.135 338.795 119.895C338.535 119.655 338.118 119.535 337.545 119.535H336.135V122.355H337.545ZM343.469 126.015C342.956 126.015 342.493 125.901 342.079 125.675C341.673 125.441 341.349 125.115 341.109 124.695C340.876 124.268 340.759 123.771 340.759 123.205C340.759 122.638 340.879 122.145 341.119 121.725C341.359 121.298 341.686 120.971 342.099 120.745C342.513 120.511 342.976 120.395 343.489 120.395C344.003 120.395 344.466 120.511 344.879 120.745C345.299 120.971 345.626 121.298 345.859 121.725C346.099 122.145 346.219 122.638 346.219 123.205C346.219 123.765 346.099 124.258 345.859 124.685C345.619 125.111 345.289 125.441 344.869 125.675C344.449 125.901 343.983 126.015 343.469 126.015ZM343.469 125.405C343.829 125.405 344.163 125.325 344.469 125.165C344.776 124.998 345.023 124.751 345.209 124.425C345.403 124.091 345.499 123.685 345.499 123.205C345.499 122.725 345.406 122.321 345.219 121.995C345.033 121.661 344.786 121.415 344.479 121.255C344.173 121.088 343.839 121.005 343.479 121.005C343.119 121.005 342.786 121.088 342.479 121.255C342.173 121.415 341.926 121.661 341.739 121.995C341.559 122.321 341.469 122.725 341.469 123.205C341.469 123.685 341.559 124.091 341.739 124.425C341.926 124.751 342.169 124.998 342.469 125.165C342.776 125.325 343.109 125.405 343.469 125.405ZM349.375 126.015C348.749 126.015 348.235 125.871 347.835 125.585C347.442 125.291 347.222 124.895 347.175 124.395H347.895C347.929 124.701 348.072 124.951 348.325 125.145C348.585 125.331 348.932 125.425 349.365 125.425C349.745 125.425 350.042 125.335 350.255 125.155C350.475 124.975 350.585 124.751 350.585 124.485C350.585 124.298 350.525 124.145 350.405 124.025C350.285 123.905 350.132 123.811 349.945 123.745C349.765 123.671 349.519 123.595 349.205 123.515C348.799 123.408 348.469 123.301 348.215 123.195C347.962 123.088 347.745 122.931 347.565 122.725C347.392 122.511 347.305 122.228 347.305 121.875C347.305 121.608 347.385 121.361 347.545 121.135C347.705 120.908 347.932 120.728 348.225 120.595C348.519 120.461 348.852 120.395 349.225 120.395C349.812 120.395 350.285 120.545 350.645 120.845C351.005 121.138 351.199 121.545 351.225 122.065H350.525C350.505 121.745 350.379 121.488 350.145 121.295C349.919 121.095 349.605 120.995 349.205 120.995C348.852 120.995 348.565 121.078 348.345 121.245C348.125 121.411 348.015 121.618 348.015 121.865C348.015 122.078 348.079 122.255 348.205 122.395C348.339 122.528 348.502 122.635 348.695 122.715C348.889 122.788 349.149 122.871 349.475 122.965C349.869 123.071 350.182 123.175 350.415 123.275C350.649 123.375 350.849 123.521 351.015 123.715C351.182 123.908 351.269 124.165 351.275 124.485C351.275 124.778 351.195 125.041 351.035 125.275C350.875 125.501 350.652 125.681 350.365 125.815C350.079 125.948 349.749 126.015 349.375 126.015ZM352.943 119.445C352.803 119.445 352.683 119.395 352.583 119.295C352.483 119.195 352.433 119.071 352.433 118.925C352.433 118.778 352.483 118.658 352.583 118.565C352.683 118.465 352.803 118.415 352.943 118.415C353.083 118.415 353.203 118.465 353.303 118.565C353.403 118.658 353.453 118.778 353.453 118.925C353.453 119.071 353.403 119.195 353.303 119.295C353.203 119.395 353.083 119.445 352.943 119.445ZM353.293 120.475V125.935H352.593V120.475H353.293ZM355.788 121.065V124.455C355.788 124.788 355.851 125.018 355.978 125.145C356.105 125.271 356.328 125.335 356.648 125.335H357.288V125.935H356.538C356.045 125.935 355.678 125.821 355.438 125.595C355.198 125.361 355.078 124.981 355.078 124.455V121.065H354.318V120.475H355.078V119.105H355.788V120.475H357.288V121.065H355.788ZM358.793 119.445C358.653 119.445 358.533 119.395 358.433 119.295C358.333 119.195 358.283 119.071 358.283 118.925C358.283 118.778 358.333 118.658 358.433 118.565C358.533 118.465 358.653 118.415 358.793 118.415C358.933 118.415 359.053 118.465 359.153 118.565C359.253 118.658 359.303 118.778 359.303 118.925C359.303 119.071 359.253 119.195 359.153 119.295C359.053 119.395 358.933 119.445 358.793 119.445ZM359.143 120.475V125.935H358.443V120.475H359.143ZM362.668 125.255L364.508 120.475H365.248L363.058 125.935H362.268L360.078 120.475H360.828L362.668 125.255ZM371.136 122.925C371.136 123.165 371.13 123.348 371.116 123.475H366.586C366.606 123.888 366.706 124.241 366.886 124.535C367.066 124.828 367.303 125.051 367.596 125.205C367.89 125.351 368.21 125.425 368.556 125.425C369.01 125.425 369.39 125.315 369.696 125.095C370.01 124.875 370.216 124.578 370.316 124.205H371.056C370.923 124.738 370.636 125.175 370.196 125.515C369.763 125.848 369.216 126.015 368.556 126.015C368.043 126.015 367.583 125.901 367.176 125.675C366.77 125.441 366.45 125.115 366.216 124.695C365.99 124.268 365.876 123.771 365.876 123.205C365.876 122.638 365.99 122.141 366.216 121.715C366.443 121.288 366.76 120.961 367.166 120.735C367.573 120.508 368.036 120.395 368.556 120.395C369.076 120.395 369.53 120.508 369.916 120.735C370.31 120.961 370.61 121.268 370.816 121.655C371.03 122.035 371.136 122.458 371.136 122.925ZM370.426 122.905C370.433 122.498 370.35 122.151 370.176 121.865C370.01 121.578 369.78 121.361 369.486 121.215C369.193 121.068 368.873 120.995 368.526 120.995C368.006 120.995 367.563 121.161 367.196 121.495C366.83 121.828 366.626 122.298 366.586 122.905H370.426Z" fill="white"/>
<path d="M282.36 137.935L280.63 135.015H279.34V137.935H278.64V130.945H280.74C281.52 130.945 282.11 131.131 282.51 131.505C282.917 131.878 283.12 132.368 283.12 132.975C283.12 133.481 282.973 133.915 282.68 134.275C282.393 134.628 281.967 134.858 281.4 134.965L283.2 137.935H282.36ZM279.34 134.445H280.75C281.297 134.445 281.707 134.311 281.98 134.045C282.26 133.778 282.4 133.421 282.4 132.975C282.4 132.515 282.267 132.161 282 131.915C281.733 131.661 281.313 131.535 280.74 131.535H279.34V134.445ZM284.859 131.445C284.719 131.445 284.599 131.395 284.499 131.295C284.399 131.195 284.349 131.071 284.349 130.925C284.349 130.778 284.399 130.658 284.499 130.565C284.599 130.465 284.719 130.415 284.859 130.415C284.999 130.415 285.119 130.465 285.219 130.565C285.319 130.658 285.369 130.778 285.369 130.925C285.369 131.071 285.319 131.195 285.219 131.295C285.119 131.395 284.999 131.445 284.859 131.445ZM285.209 132.475V137.935H284.509V132.475H285.209ZM288.674 138.015C288.047 138.015 287.534 137.871 287.134 137.585C286.741 137.291 286.521 136.895 286.474 136.395H287.194C287.227 136.701 287.371 136.951 287.624 137.145C287.884 137.331 288.231 137.425 288.664 137.425C289.044 137.425 289.341 137.335 289.554 137.155C289.774 136.975 289.884 136.751 289.884 136.485C289.884 136.298 289.824 136.145 289.704 136.025C289.584 135.905 289.431 135.811 289.244 135.745C289.064 135.671 288.817 135.595 288.504 135.515C288.097 135.408 287.767 135.301 287.514 135.195C287.261 135.088 287.044 134.931 286.864 134.725C286.691 134.511 286.604 134.228 286.604 133.875C286.604 133.608 286.684 133.361 286.844 133.135C287.004 132.908 287.231 132.728 287.524 132.595C287.817 132.461 288.151 132.395 288.524 132.395C289.111 132.395 289.584 132.545 289.944 132.845C290.304 133.138 290.497 133.545 290.524 134.065H289.824C289.804 133.745 289.677 133.488 289.444 133.295C289.217 133.095 288.904 132.995 288.504 132.995C288.151 132.995 287.864 133.078 287.644 133.245C287.424 133.411 287.314 133.618 287.314 133.865C287.314 134.078 287.377 134.255 287.504 134.395C287.637 134.528 287.801 134.635 287.994 134.715C288.187 134.788 288.447 134.871 288.774 134.965C289.167 135.071 289.481 135.175 289.714 135.275C289.947 135.375 290.147 135.521 290.314 135.715C290.481 135.908 290.567 136.165 290.574 136.485C290.574 136.778 290.494 137.041 290.334 137.275C290.174 137.501 289.951 137.681 289.664 137.815C289.377 137.948 289.047 138.015 288.674 138.015ZM294.842 137.935L292.592 135.485V137.935H291.892V130.535H292.592V134.915L294.792 132.475H295.772L293.182 135.195L295.792 137.935H294.842ZM300.086 133.935V134.525H296.196V133.935H300.086ZM301.562 135.195C301.562 134.635 301.672 134.145 301.892 133.725C302.119 133.298 302.429 132.971 302.822 132.745C303.222 132.511 303.672 132.395 304.172 132.395C304.692 132.395 305.139 132.515 305.512 132.755C305.892 132.995 306.165 133.301 306.332 133.675V132.475H307.032V137.935H306.332V136.725C306.159 137.098 305.882 137.408 305.502 137.655C305.129 137.895 304.682 138.015 304.162 138.015C303.669 138.015 303.222 137.898 302.822 137.665C302.429 137.431 302.119 137.101 301.892 136.675C301.672 136.248 301.562 135.755 301.562 135.195ZM306.332 135.205C306.332 134.765 306.242 134.378 306.062 134.045C305.882 133.711 305.635 133.455 305.322 133.275C305.015 133.095 304.675 133.005 304.302 133.005C303.915 133.005 303.569 133.091 303.262 133.265C302.955 133.438 302.712 133.691 302.532 134.025C302.359 134.351 302.272 134.741 302.272 135.195C302.272 135.641 302.359 136.035 302.532 136.375C302.712 136.708 302.955 136.965 303.262 137.145C303.569 137.318 303.915 137.405 304.302 137.405C304.675 137.405 305.015 137.315 305.322 137.135C305.635 136.955 305.882 136.698 306.062 136.365C306.242 136.031 306.332 135.645 306.332 135.205ZM308.31 135.195C308.31 134.635 308.423 134.145 308.65 133.725C308.877 133.298 309.187 132.971 309.58 132.745C309.98 132.511 310.43 132.395 310.93 132.395C311.41 132.395 311.843 132.511 312.23 132.745C312.617 132.978 312.9 133.281 313.08 133.655V130.535H313.78V137.935H313.08V136.715C312.913 137.095 312.64 137.408 312.26 137.655C311.88 137.895 311.433 138.015 310.92 138.015C310.42 138.015 309.97 137.898 309.57 137.665C309.177 137.431 308.867 137.101 308.64 136.675C308.42 136.248 308.31 135.755 308.31 135.195ZM313.08 135.205C313.08 134.765 312.99 134.378 312.81 134.045C312.63 133.711 312.383 133.455 312.07 133.275C311.763 133.095 311.423 133.005 311.05 133.005C310.663 133.005 310.317 133.091 310.01 133.265C309.703 133.438 309.46 133.691 309.28 134.025C309.107 134.351 309.02 134.741 309.02 135.195C309.02 135.641 309.107 136.035 309.28 136.375C309.46 136.708 309.703 136.965 310.01 137.145C310.317 137.318 310.663 137.405 311.05 137.405C311.423 137.405 311.763 137.315 312.07 137.135C312.383 136.955 312.63 136.698 312.81 136.365C312.99 136.031 313.08 135.645 313.08 135.205ZM315.778 131.445C315.638 131.445 315.518 131.395 315.418 131.295C315.318 131.195 315.268 131.071 315.268 130.925C315.268 130.778 315.318 130.658 315.418 130.565C315.518 130.465 315.638 130.415 315.778 130.415C315.918 130.415 316.035 130.465 316.128 130.565C316.228 130.658 316.278 130.778 316.278 130.925C316.278 131.071 316.228 131.195 316.128 131.295C316.035 131.395 315.918 131.445 315.778 131.445ZM316.118 139.225C316.118 139.665 316.008 139.988 315.788 140.195C315.568 140.408 315.238 140.515 314.798 140.515H314.308V139.915H314.688C314.948 139.915 315.135 139.858 315.248 139.745C315.361 139.638 315.418 139.455 315.418 139.195V132.475H316.118V139.225ZM322.452 132.475V137.935H321.752V136.975C321.592 137.315 321.345 137.575 321.012 137.755C320.679 137.935 320.305 138.025 319.892 138.025C319.239 138.025 318.705 137.825 318.292 137.425C317.879 137.018 317.672 136.431 317.672 135.665V132.475H318.362V135.585C318.362 136.178 318.509 136.631 318.802 136.945C319.102 137.258 319.509 137.415 320.022 137.415C320.549 137.415 320.969 137.248 321.282 136.915C321.595 136.581 321.752 136.091 321.752 135.445V132.475H322.452ZM325.93 138.015C325.303 138.015 324.79 137.871 324.39 137.585C323.997 137.291 323.777 136.895 323.73 136.395H324.45C324.483 136.701 324.627 136.951 324.88 137.145C325.14 137.331 325.487 137.425 325.92 137.425C326.3 137.425 326.597 137.335 326.81 137.155C327.03 136.975 327.14 136.751 327.14 136.485C327.14 136.298 327.08 136.145 326.96 136.025C326.84 135.905 326.687 135.811 326.5 135.745C326.32 135.671 326.073 135.595 325.76 135.515C325.353 135.408 325.023 135.301 324.77 135.195C324.517 135.088 324.3 134.931 324.12 134.725C323.947 134.511 323.86 134.228 323.86 133.875C323.86 133.608 323.94 133.361 324.1 133.135C324.26 132.908 324.487 132.728 324.78 132.595C325.073 132.461 325.407 132.395 325.78 132.395C326.367 132.395 326.84 132.545 327.2 132.845C327.56 133.138 327.753 133.545 327.78 134.065H327.08C327.06 133.745 326.933 133.488 326.7 133.295C326.473 133.095 326.16 132.995 325.76 132.995C325.407 132.995 325.12 133.078 324.9 133.245C324.68 133.411 324.57 133.618 324.57 133.865C324.57 134.078 324.633 134.255 324.76 134.395C324.893 134.528 325.057 134.635 325.25 134.715C325.443 134.788 325.703 134.871 326.03 134.965C326.423 135.071 326.737 135.175 326.97 135.275C327.203 135.375 327.403 135.521 327.57 135.715C327.737 135.908 327.823 136.165 327.83 136.485C327.83 136.778 327.75 137.041 327.59 137.275C327.43 137.501 327.207 137.681 326.92 137.815C326.633 137.948 326.303 138.015 325.93 138.015ZM330.058 133.065V136.455C330.058 136.788 330.121 137.018 330.248 137.145C330.374 137.271 330.598 137.335 330.918 137.335H331.558V137.935H330.808C330.314 137.935 329.948 137.821 329.708 137.595C329.468 137.361 329.348 136.981 329.348 136.455V133.065H328.588V132.475H329.348V131.105H330.058V132.475H331.558V133.065H330.058ZM337.652 134.925C337.652 135.165 337.645 135.348 337.632 135.475H333.102C333.122 135.888 333.222 136.241 333.402 136.535C333.582 136.828 333.819 137.051 334.112 137.205C334.405 137.351 334.725 137.425 335.072 137.425C335.525 137.425 335.905 137.315 336.212 137.095C336.525 136.875 336.732 136.578 336.832 136.205H337.572C337.439 136.738 337.152 137.175 336.712 137.515C336.279 137.848 335.732 138.015 335.072 138.015C334.559 138.015 334.099 137.901 333.692 137.675C333.285 137.441 332.965 137.115 332.732 136.695C332.505 136.268 332.392 135.771 332.392 135.205C332.392 134.638 332.505 134.141 332.732 133.715C332.959 133.288 333.275 132.961 333.682 132.735C334.089 132.508 334.552 132.395 335.072 132.395C335.592 132.395 336.045 132.508 336.432 132.735C336.825 132.961 337.125 133.268 337.332 133.655C337.545 134.035 337.652 134.458 337.652 134.925ZM336.942 134.905C336.949 134.498 336.865 134.151 336.692 133.865C336.525 133.578 336.295 133.361 336.002 133.215C335.709 133.068 335.389 132.995 335.042 132.995C334.522 132.995 334.079 133.161 333.712 133.495C333.345 133.828 333.142 134.298 333.102 134.905H336.942ZM338.613 135.195C338.613 134.635 338.726 134.145 338.953 133.725C339.179 133.298 339.489 132.971 339.883 132.745C340.283 132.511 340.733 132.395 341.233 132.395C341.713 132.395 342.146 132.511 342.533 132.745C342.919 132.978 343.203 133.281 343.383 133.655V130.535H344.083V137.935H343.383V136.715C343.216 137.095 342.943 137.408 342.563 137.655C342.183 137.895 341.736 138.015 341.223 138.015C340.723 138.015 340.273 137.898 339.873 137.665C339.479 137.431 339.169 137.101 338.943 136.675C338.723 136.248 338.613 135.755 338.613 135.195ZM343.383 135.205C343.383 134.765 343.293 134.378 343.113 134.045C342.933 133.711 342.686 133.455 342.373 133.275C342.066 133.095 341.726 133.005 341.353 133.005C340.966 133.005 340.619 133.091 340.313 133.265C340.006 133.438 339.763 133.691 339.583 134.025C339.409 134.351 339.323 134.741 339.323 135.195C339.323 135.641 339.409 136.035 339.583 136.375C339.763 136.708 340.006 136.965 340.313 137.145C340.619 137.318 340.966 137.405 341.353 137.405C341.726 137.405 342.066 137.315 342.373 137.135C342.686 136.955 342.933 136.698 343.113 136.365C343.293 136.031 343.383 135.645 343.383 135.205ZM353.045 130.945L350.805 135.215V137.935H350.105V135.215L347.845 130.945H348.635L350.455 134.575L352.265 130.945H353.045ZM354.42 131.445C354.28 131.445 354.16 131.395 354.06 131.295C353.96 131.195 353.91 131.071 353.91 130.925C353.91 130.778 353.96 130.658 354.06 130.565C354.16 130.465 354.28 130.415 354.42 130.415C354.56 130.415 354.68 130.465 354.78 130.565C354.88 130.658 354.93 130.778 354.93 130.925C354.93 131.071 354.88 131.195 354.78 131.295C354.68 131.395 354.56 131.445 354.42 131.445ZM354.77 132.475V137.935H354.07V132.475H354.77ZM361.295 134.925C361.295 135.165 361.288 135.348 361.275 135.475H356.745C356.765 135.888 356.865 136.241 357.045 136.535C357.225 136.828 357.461 137.051 357.755 137.205C358.048 137.351 358.368 137.425 358.715 137.425C359.168 137.425 359.548 137.315 359.855 137.095C360.168 136.875 360.375 136.578 360.475 136.205H361.215C361.081 136.738 360.795 137.175 360.355 137.515C359.921 137.848 359.375 138.015 358.715 138.015C358.201 138.015 357.741 137.901 357.335 137.675C356.928 137.441 356.608 137.115 356.375 136.695C356.148 136.268 356.035 135.771 356.035 135.205C356.035 134.638 356.148 134.141 356.375 133.715C356.601 133.288 356.918 132.961 357.325 132.735C357.731 132.508 358.195 132.395 358.715 132.395C359.235 132.395 359.688 132.508 360.075 132.735C360.468 132.961 360.768 133.268 360.975 133.655C361.188 134.035 361.295 134.458 361.295 134.925ZM360.585 134.905C360.591 134.498 360.508 134.151 360.335 133.865C360.168 133.578 359.938 133.361 359.645 133.215C359.351 133.068 359.031 132.995 358.685 132.995C358.165 132.995 357.721 133.161 357.355 133.495C356.988 133.828 356.785 134.298 356.745 134.905H360.585ZM363.275 130.535V137.935H362.575V130.535H363.275ZM364.541 135.195C364.541 134.635 364.654 134.145 364.881 133.725C365.107 133.298 365.417 132.971 365.811 132.745C366.211 132.511 366.661 132.395 367.161 132.395C367.641 132.395 368.074 132.511 368.461 132.745C368.847 132.978 369.131 133.281 369.311 133.655V130.535H370.011V137.935H369.311V136.715C369.144 137.095 368.871 137.408 368.491 137.655C368.111 137.895 367.664 138.015 367.151 138.015C366.651 138.015 366.201 137.898 365.801 137.665C365.407 137.431 365.097 137.101 364.871 136.675C364.651 136.248 364.541 135.755 364.541 135.195ZM369.311 135.205C369.311 134.765 369.221 134.378 369.041 134.045C368.861 133.711 368.614 133.455 368.301 133.275C367.994 133.095 367.654 133.005 367.281 133.005C366.894 133.005 366.547 133.091 366.241 133.265C365.934 133.438 365.691 133.691 365.511 134.025C365.337 134.351 365.251 134.741 365.251 135.195C365.251 135.641 365.337 136.035 365.511 136.375C365.691 136.708 365.934 136.965 366.241 137.145C366.547 137.318 366.894 137.405 367.281 137.405C367.654 137.405 367.994 137.315 368.301 137.135C368.614 136.955 368.861 136.698 369.041 136.365C369.221 136.031 369.311 135.645 369.311 135.205Z" fill="white"/>
<path d="M6.58016 126.005C6.12016 126.005 5.71349 125.925 5.36016 125.765C5.01349 125.605 4.74016 125.381 4.54016 125.095C4.34016 124.808 4.23349 124.488 4.22016 124.135H4.96016C4.99349 124.475 5.14349 124.775 5.41016 125.035C5.67682 125.288 6.06682 125.415 6.58016 125.415C7.05349 125.415 7.42682 125.295 7.70016 125.055C7.98016 124.808 8.12016 124.498 8.12016 124.125C8.12016 123.825 8.04349 123.585 7.89016 123.405C7.73682 123.218 7.54682 123.081 7.32016 122.995C7.09349 122.901 6.78016 122.801 6.38016 122.695C5.91349 122.568 5.54349 122.445 5.27016 122.325C4.99682 122.205 4.76349 122.018 4.57016 121.765C4.37682 121.511 4.28016 121.168 4.28016 120.735C4.28016 120.375 4.37349 120.055 4.56016 119.775C4.74682 119.488 5.01016 119.265 5.35016 119.105C5.69016 118.945 6.08016 118.865 6.52016 118.865C7.16682 118.865 7.68682 119.025 8.08016 119.345C8.48016 119.658 8.71016 120.065 8.77016 120.565H8.01016C7.96349 120.278 7.80682 120.025 7.54016 119.805C7.27349 119.578 6.91349 119.465 6.46016 119.465C6.04016 119.465 5.69016 119.578 5.41016 119.805C5.13016 120.025 4.99016 120.328 4.99016 120.715C4.99016 121.008 5.06682 121.245 5.22016 121.425C5.37349 121.605 5.56349 121.741 5.79016 121.835C6.02349 121.928 6.33682 122.028 6.73016 122.135C7.18349 122.261 7.55016 122.388 7.83016 122.515C8.11016 122.635 8.34682 122.821 8.54016 123.075C8.73349 123.328 8.83016 123.668 8.83016 124.095C8.83016 124.421 8.74349 124.731 8.57016 125.025C8.39682 125.318 8.14016 125.555 7.80016 125.735C7.46016 125.915 7.05349 126.005 6.58016 126.005ZM12.5728 126.015C12.0595 126.015 11.5961 125.901 11.1828 125.675C10.7761 125.441 10.4528 125.115 10.2128 124.695C9.97948 124.268 9.86281 123.771 9.86281 123.205C9.86281 122.638 9.98281 122.145 10.2228 121.725C10.4628 121.298 10.7895 120.971 11.2028 120.745C11.6161 120.511 12.0795 120.395 12.5928 120.395C13.1061 120.395 13.5695 120.511 13.9828 120.745C14.4028 120.971 14.7295 121.298 14.9628 121.725C15.2028 122.145 15.3228 122.638 15.3228 123.205C15.3228 123.765 15.2028 124.258 14.9628 124.685C14.7228 125.111 14.3928 125.441 13.9728 125.675C13.5528 125.901 13.0861 126.015 12.5728 126.015ZM12.5728 125.405C12.9328 125.405 13.2661 125.325 13.5728 125.165C13.8795 124.998 14.1261 124.751 14.3128 124.425C14.5061 124.091 14.6028 123.685 14.6028 123.205C14.6028 122.725 14.5095 122.321 14.3228 121.995C14.1361 121.661 13.8895 121.415 13.5828 121.255C13.2761 121.088 12.9428 121.005 12.5828 121.005C12.2228 121.005 11.8895 121.088 11.5828 121.255C11.2761 121.415 11.0295 121.661 10.8428 121.995C10.6628 122.321 10.5728 122.725 10.5728 123.205C10.5728 123.685 10.6628 124.091 10.8428 124.425C11.0295 124.751 11.2728 124.998 11.5728 125.165C11.8795 125.325 12.2128 125.405 12.5728 125.405ZM17.2988 118.535V125.935H16.5988V118.535H17.2988ZM20.824 125.255L22.664 120.475H23.404L21.214 125.935H20.424L18.234 120.475H18.984L20.824 125.255ZM24.7027 119.445C24.5627 119.445 24.4427 119.395 24.3427 119.295C24.2427 119.195 24.1927 119.071 24.1927 118.925C24.1927 118.778 24.2427 118.658 24.3427 118.565C24.4427 118.465 24.5627 118.415 24.7027 118.415C24.8427 118.415 24.9627 118.465 25.0627 118.565C25.1627 118.658 25.2127 118.778 25.2127 118.925C25.2127 119.071 25.1627 119.195 25.0627 119.295C24.9627 119.395 24.8427 119.445 24.7027 119.445ZM25.0527 120.475V125.935H24.3527V120.475H25.0527ZM29.1979 120.375C29.8512 120.375 30.3846 120.578 30.7979 120.985C31.2112 121.385 31.4179 121.968 31.4179 122.735V125.935H30.7279V122.815C30.7279 122.221 30.5779 121.768 30.2779 121.455C29.9846 121.141 29.5812 120.985 29.0679 120.985C28.5412 120.985 28.1212 121.151 27.8079 121.485C27.4946 121.818 27.3379 122.308 27.3379 122.955V125.935H26.6379V120.475H27.3379V121.405C27.5112 121.071 27.7612 120.818 28.0879 120.645C28.4146 120.465 28.7846 120.375 29.1979 120.375ZM35.256 120.395C35.7693 120.395 36.216 120.515 36.596 120.755C36.976 120.995 37.2493 121.298 37.416 121.665V120.475H38.116V126.075C38.116 126.575 38.006 127.018 37.786 127.405C37.5727 127.791 37.2727 128.088 36.886 128.295C36.4993 128.508 36.0593 128.615 35.566 128.615C34.866 128.615 34.2827 128.448 33.816 128.115C33.356 127.781 33.0693 127.328 32.956 126.755H33.646C33.766 127.135 33.9927 127.438 34.326 127.665C34.666 127.891 35.0793 128.005 35.566 128.005C35.9193 128.005 36.236 127.928 36.516 127.775C36.796 127.628 37.016 127.408 37.176 127.115C37.336 126.821 37.416 126.475 37.416 126.075V124.725C37.2427 125.098 36.966 125.408 36.586 125.655C36.2127 125.895 35.7693 126.015 35.256 126.015C34.756 126.015 34.306 125.898 33.906 125.665C33.5127 125.431 33.2027 125.101 32.976 124.675C32.756 124.248 32.646 123.755 32.646 123.195C32.646 122.635 32.756 122.145 32.976 121.725C33.2027 121.298 33.5127 120.971 33.906 120.745C34.306 120.511 34.756 120.395 35.256 120.395ZM37.416 123.205C37.416 122.765 37.326 122.378 37.146 122.045C36.966 121.711 36.7193 121.455 36.406 121.275C36.0993 121.095 35.7593 121.005 35.386 121.005C34.9993 121.005 34.6527 121.091 34.346 121.265C34.0393 121.438 33.796 121.691 33.616 122.025C33.4427 122.351 33.356 122.741 33.356 123.195C33.356 123.641 33.4427 124.035 33.616 124.375C33.796 124.708 34.0393 124.965 34.346 125.145C34.6527 125.318 34.9993 125.405 35.386 125.405C35.7593 125.405 36.0993 125.315 36.406 125.135C36.7193 124.955 36.966 124.698 37.146 124.365C37.326 124.031 37.416 123.645 37.416 123.205ZM43.1582 125.365H45.6682V125.935H42.4582V118.945H43.1582V125.365ZM47.0172 119.445C46.8772 119.445 46.7572 119.395 46.6572 119.295C46.5572 119.195 46.5072 119.071 46.5072 118.925C46.5072 118.778 46.5572 118.658 46.6572 118.565C46.7572 118.465 46.8772 118.415 47.0172 118.415C47.1572 118.415 47.2772 118.465 47.3772 118.565C47.4772 118.658 47.5272 118.778 47.5272 118.925C47.5272 119.071 47.4772 119.195 47.3772 119.295C47.2772 119.395 47.1572 119.445 47.0172 119.445ZM47.3672 120.475V125.935H46.6672V120.475H47.3672ZM48.6323 123.195C48.6323 122.635 48.7457 122.145 48.9723 121.725C49.199 121.298 49.509 120.971 49.9023 120.745C50.3023 120.511 50.7523 120.395 51.2523 120.395C51.7657 120.395 52.2123 120.518 52.5923 120.765C52.9723 121.005 53.2423 121.308 53.4023 121.675V120.475H54.1023V128.515H53.4023V124.735C53.2423 125.101 52.969 125.408 52.5823 125.655C52.2023 125.895 51.7523 126.015 51.2323 126.015C50.739 126.015 50.2923 125.898 49.8923 125.665C49.499 125.431 49.189 125.101 48.9623 124.675C48.7423 124.248 48.6323 123.755 48.6323 123.195ZM53.4023 123.205C53.4023 122.765 53.3123 122.378 53.1323 122.045C52.9523 121.711 52.7057 121.455 52.3923 121.275C52.0857 121.095 51.7457 121.005 51.3723 121.005C50.9857 121.005 50.639 121.091 50.3323 121.265C50.0257 121.438 49.7823 121.691 49.6023 122.025C49.429 122.351 49.3423 122.741 49.3423 123.195C49.3423 123.641 49.429 124.035 49.6023 124.375C49.7823 124.708 50.0257 124.965 50.3323 125.145C50.639 125.318 50.9857 125.405 51.3723 125.405C51.7457 125.405 52.0857 125.315 52.3923 125.135C52.7057 124.955 52.9523 124.698 53.1323 124.365C53.3123 124.031 53.4023 123.645 53.4023 123.205ZM60.4304 120.475V125.935H59.7304V124.975C59.5704 125.315 59.3237 125.575 58.9904 125.755C58.6571 125.935 58.2837 126.025 57.8704 126.025C57.2171 126.025 56.6837 125.825 56.2704 125.425C55.8571 125.018 55.6504 124.431 55.6504 123.665V120.475H56.3404V123.585C56.3404 124.178 56.4871 124.631 56.7804 124.945C57.0804 125.258 57.4871 125.415 58.0004 125.415C58.5271 125.415 58.9471 125.248 59.2604 124.915C59.5737 124.581 59.7304 124.091 59.7304 123.445V120.475H60.4304ZM62.3785 119.445C62.2385 119.445 62.1185 119.395 62.0185 119.295C61.9185 119.195 61.8685 119.071 61.8685 118.925C61.8685 118.778 61.9185 118.658 62.0185 118.565C62.1185 118.465 62.2385 118.415 62.3785 118.415C62.5185 118.415 62.6385 118.465 62.7385 118.565C62.8385 118.658 62.8885 118.778 62.8885 118.925C62.8885 119.071 62.8385 119.195 62.7385 119.295C62.6385 119.395 62.5185 119.445 62.3785 119.445ZM62.7285 120.475V125.935H62.0285V120.475H62.7285ZM63.9937 123.195C63.9937 122.635 64.107 122.145 64.3337 121.725C64.5603 121.298 64.8703 120.971 65.2637 120.745C65.6637 120.511 66.1137 120.395 66.6137 120.395C67.0937 120.395 67.527 120.511 67.9137 120.745C68.3003 120.978 68.5837 121.281 68.7637 121.655V118.535H69.4637V125.935H68.7637V124.715C68.597 125.095 68.3237 125.408 67.9437 125.655C67.5637 125.895 67.117 126.015 66.6037 126.015C66.1037 126.015 65.6537 125.898 65.2537 125.665C64.8603 125.431 64.5503 125.101 64.3237 124.675C64.1037 124.248 63.9937 123.755 63.9937 123.195ZM68.7637 123.205C68.7637 122.765 68.6737 122.378 68.4937 122.045C68.3137 121.711 68.067 121.455 67.7537 121.275C67.447 121.095 67.107 121.005 66.7337 121.005C66.347 121.005 66.0003 121.091 65.6937 121.265C65.387 121.438 65.1437 121.691 64.9637 122.025C64.7903 122.351 64.7037 122.741 64.7037 123.195C64.7037 123.641 64.7903 124.035 64.9637 124.375C65.1437 124.708 65.387 124.965 65.6937 125.145C66.0003 125.318 66.347 125.405 66.7337 125.405C67.107 125.405 67.447 125.315 67.7537 125.135C68.067 124.955 68.3137 124.698 68.4937 124.365C68.6737 124.031 68.7637 123.645 68.7637 123.205ZM71.4117 119.445C71.2717 119.445 71.1517 119.395 71.0517 119.295C70.9517 119.195 70.9017 119.071 70.9017 118.925C70.9017 118.778 70.9517 118.658 71.0517 118.565C71.1517 118.465 71.2717 118.415 71.4117 118.415C71.5517 118.415 71.6717 118.465 71.7717 118.565C71.8717 118.658 71.9217 118.778 71.9217 118.925C71.9217 119.071 71.8717 119.195 71.7717 119.295C71.6717 119.395 71.5517 119.445 71.4117 119.445ZM71.7617 120.475V125.935H71.0617V120.475H71.7617ZM74.2569 121.065V124.455C74.2569 124.788 74.3202 125.018 74.4469 125.145C74.5735 125.271 74.7969 125.335 75.1169 125.335H75.7569V125.935H75.0069C74.5135 125.935 74.1469 125.821 73.9069 125.595C73.6669 125.361 73.5469 124.981 73.5469 124.455V121.065H72.7869V120.475H73.5469V119.105H74.2569V120.475H75.7569V121.065H74.2569ZM81.4113 120.475L78.1713 128.505H77.4413L78.5013 125.905L76.2613 120.475H77.0313L78.8913 125.135L80.6913 120.475H81.4113Z" fill="white"/>
<path d="M4.14016 134.435C4.14016 133.748 4.29016 133.135 4.59016 132.595C4.89016 132.048 5.30016 131.625 5.82016 131.325C6.34016 131.018 6.92016 130.865 7.56016 130.865C8.34016 130.865 9.00682 131.051 9.56016 131.425C10.1202 131.791 10.5268 132.311 10.7802 132.985H9.96016C9.76016 132.511 9.45349 132.141 9.04016 131.875C8.63349 131.608 8.14016 131.475 7.56016 131.475C7.04682 131.475 6.58349 131.595 6.17016 131.835C5.76349 132.075 5.44349 132.421 5.21016 132.875C4.97682 133.321 4.86016 133.841 4.86016 134.435C4.86016 135.028 4.97682 135.548 5.21016 135.995C5.44349 136.441 5.76349 136.785 6.17016 137.025C6.58349 137.265 7.04682 137.385 7.56016 137.385C8.14016 137.385 8.63349 137.255 9.04016 136.995C9.45349 136.728 9.76016 136.361 9.96016 135.895H10.7802C10.5268 136.561 10.1202 137.078 9.56016 137.445C9.00016 137.811 8.33349 137.995 7.56016 137.995C6.92016 137.995 6.34016 137.845 5.82016 137.545C5.30016 137.238 4.89016 136.815 4.59016 136.275C4.29016 135.735 4.14016 135.121 4.14016 134.435ZM14.775 132.375C15.1883 132.375 15.5583 132.461 15.885 132.635C16.2183 132.808 16.4783 133.075 16.665 133.435C16.8583 133.788 16.955 134.221 16.955 134.735V137.935H16.265V134.815C16.265 134.221 16.115 133.768 15.815 133.455C15.5217 133.141 15.1183 132.985 14.605 132.985C14.0783 132.985 13.6583 133.151 13.345 133.485C13.0317 133.818 12.875 134.308 12.875 134.955V137.935H12.175V130.535H12.875V133.405C13.0483 133.078 13.3017 132.825 13.635 132.645C13.975 132.465 14.355 132.375 14.775 132.375ZM18.1831 135.195C18.1831 134.635 18.2931 134.145 18.5131 133.725C18.7398 133.298 19.0498 132.971 19.4431 132.745C19.8431 132.511 20.2931 132.395 20.7931 132.395C21.3131 132.395 21.7598 132.515 22.1331 132.755C22.5131 132.995 22.7865 133.301 22.9531 133.675V132.475H23.6531V137.935H22.9531V136.725C22.7798 137.098 22.5031 137.408 22.1231 137.655C21.7498 137.895 21.3031 138.015 20.7831 138.015C20.2898 138.015 19.8431 137.898 19.4431 137.665C19.0498 137.431 18.7398 137.101 18.5131 136.675C18.2931 136.248 18.1831 135.755 18.1831 135.195ZM22.9531 135.205C22.9531 134.765 22.8631 134.378 22.6831 134.045C22.5031 133.711 22.2565 133.455 21.9431 133.275C21.6365 133.095 21.2965 133.005 20.9231 133.005C20.5365 133.005 20.1898 133.091 19.8831 133.265C19.5765 133.438 19.3331 133.691 19.1531 134.025C18.9798 134.351 18.8931 134.741 18.8931 135.195C18.8931 135.641 18.9798 136.035 19.1531 136.375C19.3331 136.708 19.5765 136.965 19.8831 137.145C20.1898 137.318 20.5365 137.405 20.9231 137.405C21.2965 137.405 21.6365 137.315 21.9431 137.135C22.2565 136.955 22.5031 136.698 22.6831 136.365C22.8631 136.031 22.9531 135.645 22.9531 135.205ZM25.9512 130.535V137.935H25.2512V130.535H25.9512ZM28.2363 130.535V137.935H27.5363V130.535H28.2363ZM34.7615 134.925C34.7615 135.165 34.7548 135.348 34.7415 135.475H30.2115C30.2315 135.888 30.3315 136.241 30.5115 136.535C30.6915 136.828 30.9282 137.051 31.2215 137.205C31.5148 137.351 31.8348 137.425 32.1815 137.425C32.6348 137.425 33.0148 137.315 33.3215 137.095C33.6348 136.875 33.8415 136.578 33.9415 136.205H34.6815C34.5482 136.738 34.2615 137.175 33.8215 137.515C33.3882 137.848 32.8415 138.015 32.1815 138.015C31.6682 138.015 31.2082 137.901 30.8015 137.675C30.3948 137.441 30.0748 137.115 29.8415 136.695C29.6148 136.268 29.5015 135.771 29.5015 135.205C29.5015 134.638 29.6148 134.141 29.8415 133.715C30.0682 133.288 30.3848 132.961 30.7915 132.735C31.1982 132.508 31.6615 132.395 32.1815 132.395C32.7015 132.395 33.1548 132.508 33.5415 132.735C33.9348 132.961 34.2348 133.268 34.4415 133.655C34.6548 134.035 34.7615 134.458 34.7615 134.925ZM34.0515 134.905C34.0582 134.498 33.9748 134.151 33.8015 133.865C33.6348 133.578 33.4048 133.361 33.1115 133.215C32.8182 133.068 32.4982 132.995 32.1515 132.995C31.6315 132.995 31.1882 133.161 30.8215 133.495C30.4548 133.828 30.2515 134.298 30.2115 134.905H34.0515ZM38.6022 132.375C39.2555 132.375 39.7889 132.578 40.2022 132.985C40.6155 133.385 40.8222 133.968 40.8222 134.735V137.935H40.1322V134.815C40.1322 134.221 39.9822 133.768 39.6822 133.455C39.3889 133.141 38.9855 132.985 38.4722 132.985C37.9455 132.985 37.5255 133.151 37.2122 133.485C36.8989 133.818 36.7422 134.308 36.7422 134.955V137.935H36.0422V132.475H36.7422V133.405C36.9155 133.071 37.1655 132.818 37.4922 132.645C37.8189 132.465 38.1889 132.375 38.6022 132.375ZM44.6603 132.395C45.1736 132.395 45.6203 132.515 46.0003 132.755C46.3803 132.995 46.6536 133.298 46.8203 133.665V132.475H47.5203V138.075C47.5203 138.575 47.4103 139.018 47.1903 139.405C46.977 139.791 46.677 140.088 46.2903 140.295C45.9036 140.508 45.4636 140.615 44.9703 140.615C44.2703 140.615 43.687 140.448 43.2203 140.115C42.7603 139.781 42.4736 139.328 42.3603 138.755H43.0503C43.1703 139.135 43.397 139.438 43.7303 139.665C44.0703 139.891 44.4836 140.005 44.9703 140.005C45.3236 140.005 45.6403 139.928 45.9203 139.775C46.2003 139.628 46.4203 139.408 46.5803 139.115C46.7403 138.821 46.8203 138.475 46.8203 138.075V136.725C46.647 137.098 46.3703 137.408 45.9903 137.655C45.617 137.895 45.1736 138.015 44.6603 138.015C44.1603 138.015 43.7103 137.898 43.3103 137.665C42.917 137.431 42.607 137.101 42.3803 136.675C42.1603 136.248 42.0503 135.755 42.0503 135.195C42.0503 134.635 42.1603 134.145 42.3803 133.725C42.607 133.298 42.917 132.971 43.3103 132.745C43.7103 132.511 44.1603 132.395 44.6603 132.395ZM46.8203 135.205C46.8203 134.765 46.7303 134.378 46.5503 134.045C46.3703 133.711 46.1236 133.455 45.8103 133.275C45.5036 133.095 45.1636 133.005 44.7903 133.005C44.4036 133.005 44.057 133.091 43.7503 133.265C43.4436 133.438 43.2003 133.691 43.0203 134.025C42.847 134.351 42.7603 134.741 42.7603 135.195C42.7603 135.641 42.847 136.035 43.0203 136.375C43.2003 136.708 43.4436 136.965 43.7503 137.145C44.057 137.318 44.4036 137.405 44.7903 137.405C45.1636 137.405 45.5036 137.315 45.8103 137.135C46.1236 136.955 46.3703 136.698 46.5503 136.365C46.7303 136.031 46.8203 135.645 46.8203 135.205ZM54.0584 134.925C54.0584 135.165 54.0517 135.348 54.0384 135.475H49.5084C49.5284 135.888 49.6284 136.241 49.8084 136.535C49.9884 136.828 50.225 137.051 50.5184 137.205C50.8117 137.351 51.1317 137.425 51.4784 137.425C51.9317 137.425 52.3117 137.315 52.6184 137.095C52.9317 136.875 53.1384 136.578 53.2384 136.205H53.9784C53.845 136.738 53.5584 137.175 53.1184 137.515C52.685 137.848 52.1384 138.015 51.4784 138.015C50.965 138.015 50.505 137.901 50.0984 137.675C49.6917 137.441 49.3717 137.115 49.1384 136.695C48.9117 136.268 48.7984 135.771 48.7984 135.205C48.7984 134.638 48.9117 134.141 49.1384 133.715C49.365 133.288 49.6817 132.961 50.0884 132.735C50.495 132.508 50.9584 132.395 51.4784 132.395C51.9984 132.395 52.4517 132.508 52.8384 132.735C53.2317 132.961 53.5317 133.268 53.7384 133.655C53.9517 134.035 54.0584 134.458 54.0584 134.925ZM53.3484 134.905C53.355 134.498 53.2717 134.151 53.0984 133.865C52.9317 133.578 52.7017 133.361 52.4084 133.215C52.115 133.068 51.795 132.995 51.4484 132.995C50.9284 132.995 50.485 133.161 50.1184 133.495C49.7517 133.828 49.5484 134.298 49.5084 134.905H53.3484ZM57.2191 138.015C56.5924 138.015 56.0791 137.871 55.6791 137.585C55.2857 137.291 55.0657 136.895 55.0191 136.395H55.7391C55.7724 136.701 55.9157 136.951 56.1691 137.145C56.4291 137.331 56.7757 137.425 57.2091 137.425C57.5891 137.425 57.8857 137.335 58.0991 137.155C58.3191 136.975 58.4291 136.751 58.4291 136.485C58.4291 136.298 58.3691 136.145 58.2491 136.025C58.1291 135.905 57.9757 135.811 57.7891 135.745C57.6091 135.671 57.3624 135.595 57.0491 135.515C56.6424 135.408 56.3124 135.301 56.0591 135.195C55.8057 135.088 55.5891 134.931 55.4091 134.725C55.2357 134.511 55.1491 134.228 55.1491 133.875C55.1491 133.608 55.2291 133.361 55.3891 133.135C55.5491 132.908 55.7757 132.728 56.0691 132.595C56.3624 132.461 56.6957 132.395 57.0691 132.395C57.6557 132.395 58.1291 132.545 58.4891 132.845C58.8491 133.138 59.0424 133.545 59.0691 134.065H58.3691C58.3491 133.745 58.2224 133.488 57.9891 133.295C57.7624 133.095 57.4491 132.995 57.0491 132.995C56.6957 132.995 56.4091 133.078 56.1891 133.245C55.9691 133.411 55.8591 133.618 55.8591 133.865C55.8591 134.078 55.9224 134.255 56.0491 134.395C56.1824 134.528 56.3457 134.635 56.5391 134.715C56.7324 134.788 56.9924 134.871 57.3191 134.965C57.7124 135.071 58.0257 135.175 58.2591 135.275C58.4924 135.375 58.6924 135.521 58.8591 135.715C59.0257 135.908 59.1124 136.165 59.1191 136.485C59.1191 136.778 59.0391 137.041 58.8791 137.275C58.7191 137.501 58.4957 137.681 58.2091 137.815C57.9224 137.948 57.5924 138.015 57.2191 138.015Z" fill="white"/>
<path d="M311.178 57.1646C311.178 56.066 311.418 55.0846 311.898 54.2206C312.378 53.346 313.034 52.6686 313.866 52.1886C314.698 51.698 315.626 51.4526 316.65 51.4526C317.898 51.4526 318.965 51.7513 319.85 52.3486C320.746 52.9353 321.397 53.7673 321.802 54.8446H320.49C320.17 54.0873 319.679 53.4953 319.018 53.0686C318.367 52.642 317.578 52.4286 316.65 52.4286C315.829 52.4286 315.087 52.6206 314.426 53.0046C313.775 53.3886 313.263 53.9433 312.89 54.6686C312.517 55.3833 312.33 56.2153 312.33 57.1646C312.33 58.114 312.517 58.946 312.89 59.6606C313.263 60.3753 313.775 60.9246 314.426 61.3086C315.087 61.6926 315.829 61.8846 316.65 61.8846C317.578 61.8846 318.367 61.6766 319.018 61.2606C319.679 60.834 320.17 60.2473 320.49 59.5006H321.802C321.397 60.5673 320.746 61.394 319.85 61.9806C318.954 62.5673 317.887 62.8606 316.65 62.8606C315.626 62.8606 314.698 62.6206 313.866 62.1406C313.034 61.65 312.378 60.9726 311.898 60.1086C311.418 59.2446 311.178 58.2633 311.178 57.1646ZM323.522 58.3806C323.522 57.4846 323.698 56.7006 324.05 56.0286C324.413 55.346 324.909 54.8233 325.538 54.4606C326.178 54.0873 326.898 53.9006 327.698 53.9006C328.53 53.9006 329.245 54.0926 329.842 54.4766C330.45 54.8606 330.887 55.3513 331.154 55.9486V54.0286H332.274V62.7646H331.154V60.8286C330.877 61.426 330.434 61.922 329.826 62.3166C329.229 62.7006 328.514 62.8926 327.682 62.8926C326.893 62.8926 326.178 62.706 325.538 62.3326C324.909 61.9593 324.413 61.4313 324.05 60.7486C323.698 60.066 323.522 59.2766 323.522 58.3806ZM331.154 58.3966C331.154 57.6926 331.01 57.074 330.722 56.5406C330.434 56.0073 330.039 55.5966 329.538 55.3086C329.047 55.0206 328.503 54.8766 327.906 54.8766C327.287 54.8766 326.733 55.0153 326.242 55.2926C325.751 55.57 325.362 55.9753 325.074 56.5086C324.797 57.0313 324.658 57.6553 324.658 58.3806C324.658 59.0953 324.797 59.7246 325.074 60.2686C325.362 60.802 325.751 61.2126 326.242 61.5006C326.733 61.778 327.287 61.9166 327.906 61.9166C328.503 61.9166 329.047 61.7726 329.538 61.4846C330.039 61.1966 330.434 60.786 330.722 60.2526C331.01 59.7193 331.154 59.1006 331.154 58.3966ZM335.935 55.9486C336.212 55.362 336.649 54.8766 337.247 54.4926C337.855 54.098 338.575 53.9006 339.407 53.9006C340.196 53.9006 340.905 54.0873 341.535 54.4606C342.175 54.8233 342.671 55.346 343.023 56.0286C343.385 56.7006 343.567 57.4846 343.567 58.3806C343.567 59.2766 343.385 60.066 343.023 60.7486C342.671 61.4313 342.175 61.9593 341.535 62.3326C340.905 62.706 340.196 62.8926 339.407 62.8926C338.585 62.8926 337.871 62.7006 337.263 62.3166C336.655 61.922 336.212 61.4313 335.935 60.8446V66.8926H334.831V54.0286H335.935V55.9486ZM342.431 58.3806C342.431 57.6553 342.287 57.0313 341.999 56.5086C341.721 55.9753 341.337 55.57 340.847 55.2926C340.356 55.0153 339.801 54.8766 339.183 54.8766C338.585 54.8766 338.036 55.0206 337.535 55.3086C337.044 55.5966 336.655 56.0073 336.367 56.5406C336.079 57.074 335.935 57.6926 335.935 58.3966C335.935 59.1006 336.079 59.7193 336.367 60.2526C336.655 60.786 337.044 61.1966 337.535 61.4846C338.036 61.7726 338.585 61.9166 339.183 61.9166C339.801 61.9166 340.356 61.778 340.847 61.5006C341.337 61.2126 341.721 60.802 341.999 60.2686C342.287 59.7246 342.431 59.0953 342.431 58.3806ZM346.188 52.3806C345.964 52.3806 345.772 52.3006 345.612 52.1406C345.452 51.9806 345.372 51.7833 345.372 51.5486C345.372 51.314 345.452 51.122 345.612 50.9726C345.772 50.8126 345.964 50.7326 346.188 50.7326C346.412 50.7326 346.604 50.8126 346.764 50.9726C346.924 51.122 347.004 51.314 347.004 51.5486C347.004 51.7833 346.924 51.9806 346.764 52.1406C346.604 52.3006 346.412 52.3806 346.188 52.3806ZM346.748 54.0286V62.7646H345.628V54.0286H346.748ZM350.74 54.9726V60.3966C350.74 60.93 350.841 61.298 351.044 61.5006C351.247 61.7033 351.604 61.8046 352.116 61.8046H353.14V62.7646H351.94C351.151 62.7646 350.564 62.5833 350.18 62.2206C349.796 61.8473 349.604 61.2393 349.604 60.3966V54.9726H348.388V54.0286H349.604V51.8366H350.74V54.0286H353.14V54.9726H350.74ZM354.475 58.3806C354.475 57.4846 354.651 56.7006 355.003 56.0286C355.366 55.346 355.862 54.8233 356.491 54.4606C357.131 54.0873 357.851 53.9006 358.651 53.9006C359.483 53.9006 360.198 54.0926 360.795 54.4766C361.403 54.8606 361.84 55.3513 362.107 55.9486V54.0286H363.227V62.7646H362.107V60.8286C361.83 61.426 361.387 61.922 360.779 62.3166C360.182 62.7006 359.467 62.8926 358.635 62.8926C357.846 62.8926 357.131 62.706 356.491 62.3326C355.862 61.9593 355.366 61.4313 355.003 60.7486C354.651 60.066 354.475 59.2766 354.475 58.3806ZM362.107 58.3966C362.107 57.6926 361.963 57.074 361.675 56.5406C361.387 56.0073 360.992 55.5966 360.491 55.3086C360 55.0206 359.456 54.8766 358.859 54.8766C358.24 54.8766 357.686 55.0153 357.195 55.2926C356.704 55.57 356.315 55.9753 356.027 56.5086C355.75 57.0313 355.611 57.6553 355.611 58.3806C355.611 59.0953 355.75 59.7246 356.027 60.2686C356.315 60.802 356.704 61.2126 357.195 61.5006C357.686 61.778 358.24 61.9166 358.859 61.9166C359.456 61.9166 360 61.7726 360.491 61.4846C360.992 61.1966 361.387 60.786 361.675 60.2526C361.963 59.7193 362.107 59.1006 362.107 58.3966ZM366.904 50.9246V62.7646H365.784V50.9246H366.904Z" fill="white"/>
</g>
<defs>
<clipPath id="clip0_6550_7319">
<rect width="378.96" height="245.15" fill="white" transform="translate(0.519531 0.424805)"/>
</clipPath>
</defs>
</svg>
